<?xml version="1.0" encoding="UTF-8" standalone="no"?>
<!DOCTYPE svg PUBLIC "-//W3C//DTD SVG 1.1//EN"
 "http://www.w3.org/Graphics/SVG/1.1/DTD/svg11.dtd">
<!-- Generated by graphviz version 12.2.1 (20241206.2353)
 -->
<!-- Pages: 1 -->
<svg width="919pt" height="666pt"
 viewBox="0.00 0.00 918.65 665.77" xmlns="http://www.w3.org/2000/svg" xmlns:xlink="http://www.w3.org/1999/xlink">
<g id="graph0" class="graph" transform="scale(1 1) rotate(0) translate(4 661.77)">
<polygon fill="white" stroke="none" points="-4,4 -4,-661.77 914.65,-661.77 914.65,4 -4,4"/>
<g id="clust1" class="cluster">
<title>cluster_legend</title>
<polygon fill="none" stroke="black" stroke-dasharray="5,2" points="8,-462.77 8,-649.77 902.65,-649.77 902.65,-462.77 8,-462.77"/>
<text text-anchor="middle" x="455.32" y="-632.47" font-family="Times,serif" font-size="14.00">Legend</text>
</g>
<!-- F_A -->
<g id="node1" class="node">
<title>F_A</title>
<ellipse fill="none" stroke="lightblue" cx="60.38" cy="-164.77" rx="46.23" ry="46.23"/>
<text text-anchor="middle" x="60.38" y="-159.72" font-family="Times,serif" font-size="14.00">F(A) = X</text>
</g>
<!-- F_A&#45;&gt;F_A -->
<g id="edge2" class="edge">
<title>F_A&#45;&gt;F_A</title>
<path fill="none" stroke="blue" d="M36.71,-204.66C16.74,-256.56 24.63,-319 60.38,-319 93.68,-319 102.8,-264.8 87.75,-215.43"/>
<polygon fill="blue" stroke="blue" points="91.1,-214.41 84.54,-206.09 84.48,-216.69 91.1,-214.41"/>
<text text-anchor="middle" x="60.38" y="-322.2" font-family="Times,serif" font-size="14.00">id_X</text>
</g>
<!-- F_B -->
<g id="node2" class="node">
<title>F_B</title>
<ellipse fill="none" stroke="lightblue" cx="428.88" cy="-282.77" rx="45.21" ry="45.21"/>
<text text-anchor="middle" x="428.88" y="-277.72" font-family="Times,serif" font-size="14.00">F(B) = Y</text>
</g>
<!-- F_A&#45;&gt;F_B -->
<g id="edge1" class="edge">
<title>F_A&#45;&gt;F_B</title>
<path fill="none" stroke="blue" d="M104.86,-178.77C172.22,-200.46 301.62,-242.12 374.53,-265.59"/>
<polygon fill="blue" stroke="blue" points="373.27,-268.86 383.86,-268.6 375.41,-262.2 373.27,-268.86"/>
<text text-anchor="middle" x="243.86" y="-234.03" font-family="Times,serif" font-size="14.00">g</text>
</g>
<!-- G_A -->
<g id="node3" class="node">
<title>G_A</title>
<ellipse fill="none" stroke="lightgreen" cx="428.88" cy="-47.77" rx="47.77" ry="47.77"/>
<text text-anchor="middle" x="428.88" y="-42.72" font-family="Times,serif" font-size="14.00">G(A) = X</text>
</g>
<!-- F_A&#45;&gt;G_A -->
<g id="edge7" class="edge">
<title>F_A&#45;&gt;G_A</title>
<path fill="none" stroke="red" stroke-dasharray="5,2" d="M103.17,-146.73C133.7,-133.93 176.3,-116.86 214.61,-104.27 266.88,-87.09 327.65,-71.4 370.92,-60.94"/>
<polygon fill="red" stroke="red" points="371.7,-64.35 380.61,-58.61 370.06,-57.54 371.7,-64.35"/>
<text text-anchor="middle" x="243.86" y="-107.47" font-family="Times,serif" font-size="14.00">η_A: id_X</text>
</g>
<!-- F_B&#45;&gt;F_B -->
<g id="edge3" class="edge">
<title>F_B&#45;&gt;F_B</title>
<path fill="none" stroke="blue" d="M405.36,-321.62C384.89,-373.33 392.72,-435.98 428.88,-435.98 462.56,-435.98 471.66,-381.6 456.19,-332.36"/>
<polygon fill="blue" stroke="blue" points="459.54,-331.31 452.9,-323.05 452.94,-333.65 459.54,-331.31"/>
<text text-anchor="middle" x="428.88" y="-439.18" font-family="Times,serif" font-size="14.00">id_Y</text>
</g>
<!-- G_B -->
<g id="node4" class="node">
<title>G_B</title>
<ellipse fill="none" stroke="lightgreen" cx="822.52" cy="-164.77" rx="46.75" ry="46.75"/>
<text text-anchor="middle" x="822.52" y="-159.72" font-family="Times,serif" font-size="14.00">G(B) = Y</text>
</g>
<!-- F_B&#45;&gt;G_B -->
<g id="edge8" class="edge">
<title>F_B&#45;&gt;G_B</title>
<path fill="none" stroke="red" stroke-dasharray="5,2" d="M472.54,-269.92C544.01,-248.38 687.88,-205.03 766.74,-181.27"/>
<polygon fill="red" stroke="red" points="767.4,-184.73 775.97,-178.49 765.38,-178.03 767.4,-184.73"/>
<text text-anchor="middle" x="613.52" y="-237.54" font-family="Times,serif" font-size="14.00">η_B: id_Y</text>
</g>
<!-- G_A&#45;&gt;G_A -->
<g id="edge5" class="edge">
<title>G_A&#45;&gt;G_A</title>
<path fill="none" stroke="green" d="M404.61,-89.24C385.09,-141.42 393.17,-203.54 428.88,-203.54 462.14,-203.54 471.43,-149.62 456.76,-100.06"/>
<polygon fill="green" stroke="green" points="460.11,-99.05 453.62,-90.68 453.48,-101.27 460.11,-99.05"/>
<text text-anchor="middle" x="428.88" y="-206.74" font-family="Times,serif" font-size="14.00">id_X</text>
</g>
<!-- G_A&#45;&gt;G_B -->
<g id="edge4" class="edge">
<title>G_A&#45;&gt;G_B</title>
<path fill="none" stroke="green" d="M475.72,-59.03C518.93,-69.86 585.37,-87.08 642.4,-104.27 684.69,-117.02 732.02,-133.08 767.4,-145.45"/>
<polygon fill="green" stroke="green" points="765.96,-148.66 776.55,-148.66 768.27,-142.05 765.96,-148.66"/>
<text text-anchor="middle" x="613.52" y="-107.47" font-family="Times,serif" font-size="14.00">g</text>
</g>
<!-- G_B&#45;&gt;G_B -->
<g id="edge6" class="edge">
<title>G_B&#45;&gt;G_B</title>
<path fill="none" stroke="green" d="M796.08,-203.62C772.68,-255.92 781.5,-319.51 822.52,-319.51 860.82,-319.51 871.05,-264.08 853.2,-214.17"/>
<polygon fill="green" stroke="green" points="856.5,-213 849.53,-205.03 850.01,-215.61 856.5,-213"/>
<text text-anchor="middle" x="822.52" y="-322.71" font-family="Times,serif" font-size="14.00">id_Y</text>
</g>
<!-- legend_F -->
<g id="node5" class="node">
<title>legend_F</title>
<text text-anchor="middle" x="60.38" y="-538.72" font-family="Times,serif" font-size="14.00">F(morphism)</text>
</g>
<!-- legend_G -->
<g id="node6" class="node">
<title>legend_G</title>
<text text-anchor="middle" x="428.88" y="-483.72" font-family="Times,serif" font-size="14.00">G(morphism)</text>
</g>
<!-- legend_F&#45;&gt;legend_G -->
<g id="edge9" class="edge">
<title>legend_F&#45;&gt;legend_G</title>
<path fill="none" stroke="blue" d="M104.5,-537.3C171.04,-527.31 298.74,-508.15 372.19,-497.13"/>
<polygon fill="blue" stroke="blue" points="372.63,-500.6 382,-495.65 371.59,-493.68 372.63,-500.6"/>
</g>
<!-- legend_eta -->
<g id="node7" class="node">
<title>legend_eta</title>
<text text-anchor="middle" x="822.52" y="-538.72" font-family="Times,serif" font-size="14.00">Natural Transformation</text>
</g>
<!-- legend_F&#45;&gt;legend_eta -->
<g id="edge11" class="edge">
<title>legend_F&#45;&gt;legend_eta</title>
<path fill="none" stroke="red" stroke-dasharray="5,2" d="M104.53,-546.79C165.93,-550.93 282.06,-558.14 381.11,-560.77 506.05,-564.09 650.85,-556.25 739.3,-550.14"/>
<polygon fill="red" stroke="red" points="739.36,-553.65 749.09,-549.46 738.87,-546.66 739.36,-553.65"/>
</g>
<!-- legend_G&#45;&gt;legend_eta -->
<g id="edge10" class="edge">
<title>legend_G&#45;&gt;legend_eta</title>
<path fill="none" stroke="green" d="M474.04,-494.97C538.24,-503.99 658.47,-520.87 739.27,-532.22"/>
<polygon fill="green" stroke="green" points="738.51,-535.65 748.9,-533.57 739.48,-528.71 738.51,-535.65"/>
</g>
</g>
</svg>
